<?xml version="1.0" encoding="utf-8"?>
<!-- Generator: Adobe Illustrator 21.1.0, SVG Export Plug-In . SVG Version: 6.00 Build 0)  -->
<svg version="1.0" id="Layer_1" xmlns="http://www.w3.org/2000/svg" xmlns:xlink="http://www.w3.org/1999/xlink" x="0px" y="0px"
	 viewBox="0 0 338.7 337.3" style="enable-background:new 0 0 338.7 337.3;" xml:space="preserve">
<style type="text/css">
	.st0{fill:#F91600;}
	.st1{fill:none;stroke:#0031AA;}
</style>
<g>
	<path class="st0" d="M238.2,18.6C238,18.7,181.7,37,187.1,88v0c41.5,7.3,73,42.8,73,85.5c0,48-39.8,86.9-88.8,86.9
		c-31.7,0-59.5-16.2-75.2-40.6c0,0,0,0,0,0C31.7,128.9,128.6,12.9,238.2,18.6c-21.2-9.8-44.7-15.4-69.6-15.4
		C77.4,3.2,3.5,77.2,3.5,168.4s73.9,165.1,165.1,165.1c91.2,0,165.1-73.9,165.1-165.1C333.8,102,294.6,44.9,238.2,18.6z"/>
	<polygon class="st1" points="48.6,-960.1 48.6,-960.1 48.6,-960.1 	"/>
</g>
</svg>
